<?xml version="1.0" ?>
<!-- Uploaded to: SVG Repo, www.svgrepo.com, Generator: SVG Repo Mixer Tools -->
<svg width="800px" height="800px" viewBox="0 0 128 128" id="Layer_1" version="1.1" xml:space="preserve" xmlns="http://www.w3.org/2000/svg" xmlns:xlink="http://www.w3.org/1999/xlink">
<style type="text/css">
	.st0{fill:#581166;}
	.st1{fill:#E83A3A;}
	.st2{fill:#FF5855;}
	.st3{opacity:0.5;}
	.st4{fill:#FFDA8E;}
	.st5{fill:#FFFFFF;}
	.st6{fill:#EABA65;}
	.st7{fill:#E6E6E6;}
	.st8{fill:#460A54;}
	.st9{fill:none;}
	.st10{fill:none;stroke:#581166;stroke-width:2;stroke-linecap:round;stroke-linejoin:round;stroke-miterlimit:10;}
	.st11{fill:#F2F2F2;}
</style>
<g>
<g>
<g>
<g>
<g>
<rect class="st4" height="91.6" width="8.9" x="68.2" y="20.8"/>
</g>
</g>
</g>
<g>
<g>
<g>
<path class="st0" d="M77.1,114.3h-8.9c-1,0-1.9-0.8-1.9-1.9V20.8c0-1,0.8-1.9,1.9-1.9h8.9c1,0,1.9,0.8,1.9,1.9v91.6       C78.9,113.5,78.1,114.3,77.1,114.3z M70,110.6h5.1V22.7H70V110.6z"/>
</g>
</g>
</g>
</g>
<g>
<g>
<g>
<g>
<path class="st2" d="M111,50v3.1c0,2.1-1.7,3.7-3.7,3.7H38c-2.1,0-3.7-1.7-3.7-3.7V31.5c0-1.1,0.5-2.2,1.3-2.9v18.5       c0,2.1,1.7,3.7,3.7,3.7h69.3C109.5,50.9,110.4,50.6,111,50z"/>
</g>
</g>
</g>
<g class="st3">
<g>
<g>
<g>
<path class="st0" d="M111,50v3.1c0,2.1-1.7,3.7-3.7,3.7H38c-2.1,0-3.7-1.7-3.7-3.7V31.5c0-1.1,0.5-2.2,1.3-2.9v18.5        c0,2.1,1.7,3.7,3.7,3.7h69.3C109.5,50.9,110.4,50.6,111,50z"/>
</g>
</g>
</g>
</g>
<g>
<g>
<g>
<path class="st2" d="M111,31.5V50c-0.7,0.6-1.5,0.9-2.4,0.9H39.3c-2.1,0-3.7-1.7-3.7-3.7V28.6c0.7-0.6,1.5-0.9,2.4-0.9h69.3       C109.3,27.7,111,29.4,111,31.5z"/>
</g>
</g>
</g>
<g>
<g>
<g>
<path class="st0" d="M107.3,58.8H37.9c-3.1,0-5.6-2.5-5.6-5.6V31.5c0-3.1,2.5-5.6,5.6-5.6h69.3c3.1,0,5.6,2.5,5.6,5.6v21.7       C112.9,56.2,110.4,58.8,107.3,58.8z M37.9,29.6c-1,0-1.9,0.8-1.9,1.9v21.7c0,1,0.8,1.9,1.9,1.9h69.3c1,0,1.9-0.8,1.9-1.9V31.5       c0-1-0.8-1.9-1.9-1.9H37.9z"/>
</g>
</g>
</g>
<g>
<g>
<g>
<path class="st5" d="M61.7,37.8v0.5c0,1.4-0.4,2.3-1.4,2.7v0c1.2,0.5,1.6,1.5,1.6,2.9v1.1c0,2.1-1.1,3.2-3.3,3.2h-3.4V34.7h3.3       C60.7,34.7,61.7,35.7,61.7,37.8z M57.4,36.6v3.6h0.8c0.8,0,1.3-0.4,1.3-1.4v-0.8c0-1-0.3-1.4-1.1-1.4H57.4z M57.4,42.2v4.2h1.2       c0.7,0,1.1-0.3,1.1-1.4v-1.2c0-1.3-0.4-1.7-1.4-1.7H57.4z"/>
</g>
</g>
<g>
<g>
<path class="st5" d="M65.3,40.5h3v2h-3v4h3.7v2h-5.9V34.7h5.9v2h-3.7V40.5z"/>
</g>
</g>
<g>
<g>
<path class="st5" d="M77.4,48.4h-2.2l-0.4-2.5h-2.6l-0.4,2.5h-2L72,34.7h3.2L77.4,48.4z M72.4,44h2.1l-1-6.9h0L72.4,44z"/>
</g>
</g>
<g>
<g>
<path class="st5" d="M84.6,43.3v1.8c0,2.2-1.1,3.4-3.2,3.4s-3.2-1.3-3.2-3.4V38c0-2.2,1.1-3.4,3.2-3.4s3.2,1.3,3.2,3.4v1.3h-2       v-1.5c0-1-0.4-1.4-1.1-1.4c-0.7,0-1.1,0.4-1.1,1.4v7.4c0,1,0.4,1.3,1.1,1.3c0.7,0,1.1-0.4,1.1-1.3v-2H84.6z"/>
</g>
</g>
<g>
<g>
<path class="st5" d="M88.1,48.4h-2.2V34.7h2.2v5.9h2.4v-5.9h2.2v13.7h-2.2v-5.9h-2.4V48.4z"/>
</g>
</g>
</g>
</g>
<g>
<g>
<g>
<g>
<path class="st0" d="M110,114.3H35.3c-1,0-1.9-0.8-1.9-1.9s0.8-1.9,1.9-1.9H110c1,0,1.9,0.8,1.9,1.9S111,114.3,110,114.3z"/>
</g>
</g>
</g>
</g>
<g>
<g>
<g>
<path class="st6" d="M102.6,112.4c-1.7-3.9-5.6-6.7-10.2-6.7c-1.6,0-3,0.3-4.4,0.9c-1.4-4.5-5.6-7.8-10.6-7.8      c-3.9,0-7.3,2-9.3,5.1c-2-2.6-5.2-4.3-8.7-4.3c-6.1,0-11.1,5-11.1,11.1c0,0.6,0.1,1.1,0.1,1.7H102.6z"/>
</g>
</g>
<g>
<g>
<path class="st0" d="M102.6,114.3H48.4c-0.9,0-1.7-0.7-1.9-1.6c-0.1-0.7-0.2-1.3-0.2-1.9c0-7.2,5.8-13,13-13      c3.2,0,6.3,1.2,8.6,3.3c2.4-2.6,5.8-4.1,9.5-4.1c5.1,0,9.6,2.9,11.7,7.3c1.1-0.3,2.2-0.4,3.3-0.4c5.2,0,9.8,3.1,11.9,7.8      c0.3,0.6,0.2,1.2-0.2,1.8C103.8,114,103.2,114.3,102.6,114.3z M50.1,110.6h49c-1.7-1.8-4.1-2.9-6.7-2.9c-1.3,0-2.5,0.3-3.6,0.7      c-0.5,0.2-1,0.2-1.5,0c-0.5-0.2-0.8-0.6-1-1.1c-1.2-3.9-4.8-6.5-8.8-6.5c-3.1,0-6,1.6-7.8,4.2c-0.3,0.5-0.9,0.8-1.5,0.9      c-0.6,0-1.2-0.2-1.6-0.7c-1.8-2.3-4.4-3.5-7.3-3.5C54.4,101.5,50.3,105.6,50.1,110.6z"/>
</g>
</g>
</g>
</g>
</svg>